<mxfile host="app.diagrams.net" agent="Mozilla/5.0 (Macintosh; Intel Mac OS X 10_15_7) AppleWebKit/605.1.15 (KHTML, like Gecko) Version/18.5 Safari/605.1.15" version="28.0.6">
  <diagram name="Page-1" id="QSrvdx83Vr1VwmNzBK8h">
    <mxGraphModel dx="1097" dy="596" grid="1" gridSize="10" guides="1" tooltips="1" connect="1" arrows="1" fold="1" page="1" pageScale="1" pageWidth="827" pageHeight="1169" math="1" shadow="0">
      <root>
        <mxCell id="0" />
        <mxCell id="1" parent="0" />
        <mxCell id="OC3_dLONtuSQOPXul3dN-1" value="" style="rounded=0;whiteSpace=wrap;html=1;" vertex="1" parent="1">
          <mxGeometry x="50" y="20" width="720" height="380" as="geometry" />
        </mxCell>
        <mxCell id="OC3_dLONtuSQOPXul3dN-2" value="&lt;b&gt;&lt;font face=&quot;Times New Roman&quot; style=&quot;font-size: 23px;&quot;&gt;Người gửi&lt;/font&gt;&lt;/b&gt;" style="shape=umlActor;verticalLabelPosition=bottom;verticalAlign=top;html=1;outlineConnect=0;" vertex="1" parent="1">
          <mxGeometry x="160" y="141" width="50" height="80" as="geometry" />
        </mxCell>
        <mxCell id="OC3_dLONtuSQOPXul3dN-3" value="&lt;br&gt;&lt;div&gt;&lt;font style=&quot;font-size: 23px;&quot;&gt;$$C=m^e \text{ mod } n$$&lt;/font&gt;&lt;/div&gt;" style="rounded=1;whiteSpace=wrap;html=1;" vertex="1" parent="1">
          <mxGeometry x="70" y="263" width="205" height="100" as="geometry" />
        </mxCell>
        <mxCell id="OC3_dLONtuSQOPXul3dN-4" value="&lt;b&gt;&lt;font face=&quot;Times New Roman&quot; style=&quot;font-size: 23px;&quot;&gt;Người nhận&lt;/font&gt;&lt;/b&gt;" style="shape=umlActor;verticalLabelPosition=bottom;verticalAlign=top;html=1;outlineConnect=0;" vertex="1" parent="1">
          <mxGeometry x="545" y="140" width="50" height="80" as="geometry" />
        </mxCell>
        <mxCell id="OC3_dLONtuSQOPXul3dN-5" value="&lt;br&gt;&lt;div&gt;&lt;font style=&quot;font-size: 23px;&quot;&gt;$$m=C^d \text{ mod } n$$&lt;/font&gt;&lt;/div&gt;" style="rounded=1;whiteSpace=wrap;html=1;" vertex="1" parent="1">
          <mxGeometry x="469" y="267" width="205" height="113" as="geometry" />
        </mxCell>
        <mxCell id="OC3_dLONtuSQOPXul3dN-6" style="edgeStyle=orthogonalEdgeStyle;rounded=0;orthogonalLoop=1;jettySize=auto;html=1;entryX=0.01;entryY=0.405;entryDx=0;entryDy=0;entryPerimeter=0;" edge="1" parent="1" source="OC3_dLONtuSQOPXul3dN-3" target="OC3_dLONtuSQOPXul3dN-5">
          <mxGeometry relative="1" as="geometry" />
        </mxCell>
        <mxCell id="OC3_dLONtuSQOPXul3dN-7" value="&lt;font style=&quot;font-size: 23px;&quot;&gt;$$C$$&lt;/font&gt;" style="text;html=1;align=center;verticalAlign=middle;resizable=0;points=[];autosize=1;strokeColor=none;fillColor=none;" vertex="1" parent="1">
          <mxGeometry x="326" y="280" width="90" height="40" as="geometry" />
        </mxCell>
        <mxCell id="OC3_dLONtuSQOPXul3dN-8" value="&lt;font style=&quot;font-size: 23px;&quot;&gt;$$(n, d)$$&lt;/font&gt;" style="text;html=1;align=center;verticalAlign=middle;resizable=0;points=[];autosize=1;strokeColor=none;fillColor=none;" vertex="1" parent="1">
          <mxGeometry x="627.5" y="30" width="130" height="40" as="geometry" />
        </mxCell>
        <mxCell id="OC3_dLONtuSQOPXul3dN-9" value="&lt;font face=&quot;Times New Roman&quot; style=&quot;font-size: 23px;&quot;&gt;Khoá bí mật của người nhận:&lt;/font&gt;" style="text;html=1;align=center;verticalAlign=middle;resizable=0;points=[];autosize=1;strokeColor=none;fillColor=none;" vertex="1" parent="1">
          <mxGeometry x="380" y="30" width="290" height="40" as="geometry" />
        </mxCell>
        <mxCell id="OC3_dLONtuSQOPXul3dN-10" value="&lt;font face=&quot;Times New Roman&quot; style=&quot;font-size: 23px;&quot;&gt;Khoá công khai của người nhận:&amp;nbsp;&lt;/font&gt;" style="text;html=1;align=center;verticalAlign=middle;resizable=0;points=[];autosize=1;strokeColor=none;fillColor=none;" vertex="1" parent="1">
          <mxGeometry x="378" y="60" width="330" height="40" as="geometry" />
        </mxCell>
        <mxCell id="OC3_dLONtuSQOPXul3dN-11" value="&lt;font style=&quot;font-size: 23px;&quot;&gt;$$d=e^{-1} \text{ mod } &amp;nbsp;\phi(n)$$&lt;/font&gt;" style="text;html=1;align=center;verticalAlign=middle;resizable=0;points=[];autosize=1;strokeColor=none;fillColor=none;" vertex="1" parent="1">
          <mxGeometry x="330" y="90" width="360" height="40" as="geometry" />
        </mxCell>
        <mxCell id="OC3_dLONtuSQOPXul3dN-12" value="&lt;span style=&quot;caret-color: rgb(0, 0, 0); color: rgb(0, 0, 0); font-family: Helvetica; font-size: 23px; font-style: normal; font-variant-caps: normal; font-weight: 400; letter-spacing: normal; text-align: center; text-indent: 0px; text-transform: none; white-space: nowrap; word-spacing: 0px; -webkit-text-stroke-width: 0px; background-color: rgb(236, 236, 236); text-decoration: none; float: none; display: inline !important;&quot;&gt;$$(n,e)$$&lt;/span&gt;" style="text;whiteSpace=wrap;html=1;" vertex="1" parent="1">
          <mxGeometry x="230" y="30" width="100" height="50" as="geometry" />
        </mxCell>
        <mxCell id="OC3_dLONtuSQOPXul3dN-13" value="&lt;span style=&quot;caret-color: rgb(0, 0, 0); color: rgb(0, 0, 0); font-family: Helvetica; font-size: 23px; font-style: normal; font-variant-caps: normal; font-weight: 400; letter-spacing: normal; text-align: center; text-indent: 0px; text-transform: none; white-space: nowrap; word-spacing: 0px; -webkit-text-stroke-width: 0px; background-color: rgb(236, 236, 236); text-decoration: none; float: none; display: inline !important;&quot;&gt;$$(n,e)$$&lt;/span&gt;" style="text;whiteSpace=wrap;html=1;" vertex="1" parent="1">
          <mxGeometry x="688.5" y="37" width="100" height="50" as="geometry" />
        </mxCell>
        <mxCell id="OC3_dLONtuSQOPXul3dN-14" style="edgeStyle=orthogonalEdgeStyle;rounded=0;orthogonalLoop=1;jettySize=auto;html=1;exitX=0.1;exitY=0.5;exitDx=0;exitDy=0;exitPerimeter=0;" edge="1" parent="1">
          <mxGeometry relative="1" as="geometry">
            <mxPoint x="370" y="90" as="sourcePoint" />
            <mxPoint x="183" y="141" as="targetPoint" />
            <Array as="points">
              <mxPoint x="183" y="90" />
            </Array>
          </mxGeometry>
        </mxCell>
        <mxCell id="OC3_dLONtuSQOPXul3dN-15" value="" style="shape=curlyBracket;whiteSpace=wrap;html=1;rounded=1;labelPosition=left;verticalLabelPosition=middle;align=right;verticalAlign=middle;" vertex="1" parent="1">
          <mxGeometry x="370" y="30" width="20" height="120" as="geometry" />
        </mxCell>
      </root>
    </mxGraphModel>
  </diagram>
</mxfile>
